<svg width="48" height="30" viewBox="0 0 48 30" fill="none" xmlns="http://www.w3.org/2000/svg">
<rect width="48" height="30" rx="2" fill="url(#paint0_radial)"/>
<path fill-rule="evenodd" clip-rule="evenodd" d="M30.2083 10.5C30.4583 9.08337 30.2083 8.08337 29.4166 7.20837C28.6249 6.25004 27.0833 5.83337 25.0833 5.83337H19.4583C19.0416 5.83337 18.7083 6.12504 18.6249 6.54171L16.2499 21.5834C16.2083 21.875 16.4166 22.125 16.7083 22.125H20.2083L19.9583 23.6667C19.9166 23.9584 20.1249 24.1667 20.3749 24.1667H23.3333C23.7083 24.1667 23.9999 23.875 24.0416 23.5834L24.0833 23.4584L24.6249 19.9584L24.6666 19.7917C24.7083 19.4584 25.0416 19.2084 25.3749 19.2084H25.8333C28.7083 19.2084 30.9583 18.0417 31.6249 14.6667C31.9166 13.2917 31.7499 12.0834 31.0416 11.25C30.8333 10.875 30.5416 10.6667 30.2083 10.5" fill="white" fill-opacity="0.68"/>
<path fill-rule="evenodd" clip-rule="evenodd" d="M30.2083 10.5C30.4583 9.08337 30.2083 8.08337 29.4166 7.20837C28.6249 6.25004 27.0833 5.83337 25.0833 5.83337H19.4583C19.0416 5.83337 18.7083 6.12504 18.6249 6.54171L16.2499 21.5834C16.2083 21.875 16.4166 22.125 16.7083 22.125H20.2083L21.0833 16.5417L21.0416 16.7084C21.1249 16.2917 21.4999 16 21.8749 16H23.5416C26.8333 16 29.3749 14.6667 30.1666 10.8334C30.1666 10.7084 30.2083 10.5834 30.2083 10.5" fill="white" fill-opacity="0.7"/>
<path fill-rule="evenodd" clip-rule="evenodd" d="M22.0833 10.5C22.1249 10.25 22.2499 10.0834 22.4999 9.95837C22.5833 9.91671 22.6666 9.87504 22.8333 9.87504H27.2916C27.7916 9.91671 28.2916 9.95837 28.7916 10C28.9166 10 29.0416 10.0417 29.1666 10.0834C29.2916 10.125 29.4166 10.125 29.5416 10.1667C29.5833 10.1667 29.6249 10.2084 29.7083 10.2084C29.9583 10.2917 30.1249 10.3334 30.2916 10.5C30.5416 9.08337 30.2916 8.08337 29.4999 7.20837C28.6666 6.25004 27.1249 5.83337 25.1249 5.83337H19.4583C19.0416 5.83337 18.7083 6.12504 18.6249 6.54171L16.2499 21.5834C16.2083 21.875 16.4166 22.125 16.7083 22.125H20.2083L22.0833 10.5" fill="white"/>
<rect width="48" height="30" rx="2" fill="url(#paint1_radial)"/>
<path fill-rule="evenodd" clip-rule="evenodd" d="M30.2083 10.5C30.4583 9.08337 30.2083 8.08337 29.4166 7.20837C28.6249 6.25004 27.0833 5.83337 25.0833 5.83337H19.4583C19.0416 5.83337 18.7083 6.12504 18.6249 6.54171L16.2499 21.5834C16.2083 21.875 16.4166 22.125 16.7083 22.125H20.2083L19.9583 23.6667C19.9166 23.9584 20.1249 24.1667 20.3749 24.1667H23.3333C23.7083 24.1667 23.9999 23.875 24.0416 23.5834L24.0833 23.4584L24.6249 19.9584L24.6666 19.7917C24.7083 19.4584 25.0416 19.2084 25.3749 19.2084H25.8333C28.7083 19.2084 30.9583 18.0417 31.6249 14.6667C31.9166 13.2917 31.7499 12.0834 31.0416 11.25C30.8333 10.875 30.5416 10.6667 30.2083 10.5" fill="white" fill-opacity="0.68"/>
<path fill-rule="evenodd" clip-rule="evenodd" d="M30.2083 10.5C30.4583 9.08337 30.2083 8.08337 29.4166 7.20837C28.6249 6.25004 27.0833 5.83337 25.0833 5.83337H19.4583C19.0416 5.83337 18.7083 6.12504 18.6249 6.54171L16.2499 21.5834C16.2083 21.875 16.4166 22.125 16.7083 22.125H20.2083L21.0833 16.5417L21.0416 16.7084C21.1249 16.2917 21.4999 16 21.8749 16H23.5416C26.8333 16 29.3749 14.6667 30.1666 10.8334C30.1666 10.7084 30.2083 10.5834 30.2083 10.5" fill="white" fill-opacity="0.7"/>
<path fill-rule="evenodd" clip-rule="evenodd" d="M22.0833 10.5C22.1249 10.25 22.2499 10.0834 22.4999 9.95837C22.5833 9.91671 22.6666 9.87504 22.8333 9.87504H27.2916C27.7916 9.91671 28.2916 9.95837 28.7916 10C28.9166 10 29.0416 10.0417 29.1666 10.0834C29.2916 10.125 29.4166 10.125 29.5416 10.1667C29.5833 10.1667 29.6249 10.2084 29.7083 10.2084C29.9583 10.2917 30.1249 10.3334 30.2916 10.5C30.5416 9.08337 30.2916 8.08337 29.4999 7.20837C28.6666 6.25004 27.1249 5.83337 25.1249 5.83337H19.4583C19.0416 5.83337 18.7083 6.12504 18.6249 6.54171L16.2499 21.5834C16.2083 21.875 16.4166 22.125 16.7083 22.125H20.2083L22.0833 10.5" fill="white"/>
<rect width="48" height="30" rx="2" fill="#003087"/>
<path fill-rule="evenodd" clip-rule="evenodd" d="M30.2083 10.5C30.4583 9.08337 30.2083 8.08337 29.4166 7.20837C28.6249 6.25004 27.0833 5.83337 25.0833 5.83337H19.4583C19.0416 5.83337 18.7083 6.12504 18.6249 6.54171L16.2499 21.5834C16.2083 21.875 16.4166 22.125 16.7083 22.125H20.2083L19.9583 23.6667C19.9166 23.9584 20.1249 24.1667 20.3749 24.1667H23.3333C23.7083 24.1667 23.9999 23.875 24.0416 23.5834L24.0833 23.4584L24.6249 19.9584L24.6666 19.7917C24.7083 19.4584 25.0416 19.2084 25.3749 19.2084H25.8333C28.7083 19.2084 30.9583 18.0417 31.6249 14.6667C31.9166 13.2917 31.7499 12.0834 31.0416 11.25C30.8333 10.875 30.5416 10.6667 30.2083 10.5" fill="white" fill-opacity="0.68"/>
<path fill-rule="evenodd" clip-rule="evenodd" d="M30.2083 10.5C30.4583 9.08337 30.2083 8.08337 29.4166 7.20837C28.6249 6.25004 27.0833 5.83337 25.0833 5.83337H19.4583C19.0416 5.83337 18.7083 6.12504 18.6249 6.54171L16.2499 21.5834C16.2083 21.875 16.4166 22.125 16.7083 22.125H20.2083L21.0833 16.5417L21.0416 16.7084C21.1249 16.2917 21.4999 16 21.8749 16H23.5416C26.8333 16 29.3749 14.6667 30.1666 10.8334C30.1666 10.7084 30.2083 10.5834 30.2083 10.5" fill="white" fill-opacity="0.7"/>
<path fill-rule="evenodd" clip-rule="evenodd" d="M22.0833 10.5C22.1249 10.25 22.2499 10.0834 22.4999 9.95837C22.5833 9.91671 22.6666 9.87504 22.8333 9.87504H27.2916C27.7916 9.91671 28.2916 9.95837 28.7916 10C28.9166 10 29.0416 10.0417 29.1666 10.0834C29.2916 10.125 29.4166 10.125 29.5416 10.1667C29.5833 10.1667 29.6249 10.2084 29.7083 10.2084C29.9583 10.2917 30.1249 10.3334 30.2916 10.5C30.5416 9.08337 30.2916 8.08337 29.4999 7.20837C28.6666 6.25004 27.1249 5.83337 25.1249 5.83337H19.4583C19.0416 5.83337 18.7083 6.12504 18.6249 6.54171L16.2499 21.5834C16.2083 21.875 16.4166 22.125 16.7083 22.125H20.2083L22.0833 10.5" fill="white"/>
<defs>
<radialGradient id="paint0_radial" cx="0" cy="0" r="1" gradientUnits="userSpaceOnUse" gradientTransform="translate(8.17634 3.8072) rotate(33.2719) scale(44.887 45.039)">
<stop stop-color="#03468E"/>
<stop offset="1" stop-color="#031B41"/>
</radialGradient>
<radialGradient id="paint1_radial" cx="0" cy="0" r="1" gradientUnits="userSpaceOnUse" gradientTransform="translate(8.17634 3.8072) rotate(33.2719) scale(44.887 45.039)">
<stop stop-color="#03468E"/>
<stop offset="1" stop-color="#031B41"/>
</radialGradient>
</defs>
</svg>
