<?xml version="1.0" encoding="UTF-8" standalone="no"?>
<svg
   width="160"
   height="30"
   viewBox="0 0 160 30"
   version="1.1"
   id="svg15"
   sodipodi:docname="credit-cards.svg"
   inkscape:version="1.1.1 (3bf5ae0d25, 2021-09-20)"
   xmlns:inkscape="http://www.inkscape.org/namespaces/inkscape"
   xmlns:sodipodi="http://sodipodi.sourceforge.net/DTD/sodipodi-0.dtd"
   xmlns="http://www.w3.org/2000/svg"
   xmlns:svg="http://www.w3.org/2000/svg"
   xmlns:rdf="http://www.w3.org/1999/02/22-rdf-syntax-ns#"
   xmlns:cc="http://creativecommons.org/ns#"
   xmlns:dc="http://purl.org/dc/elements/1.1/">
  <defs
     id="defs19" />
  <sodipodi:namedview
     id="namedview17"
     pagecolor="#ffffff"
     bordercolor="#666666"
     borderopacity="1.0"
     inkscape:pageshadow="2"
     inkscape:pageopacity="0.0"
     inkscape:pagecheckerboard="0"
     showgrid="false"
     fit-margin-top="0"
     fit-margin-left="0"
     fit-margin-right="0"
     fit-margin-bottom="0"
     inkscape:zoom="0.870625"
     inkscape:cx="190.09332"
     inkscape:cy="-69.490309"
     inkscape:window-width="2492"
     inkscape:window-height="1376"
     inkscape:window-x="0"
     inkscape:window-y="0"
     inkscape:window-maximized="1"
     inkscape:current-layer="svg15" />
  <!-- Generator: Sketch 56.3 (81716) - https://sketch.com -->
  <title
     id="title2">large/american-express</title>
  <desc
     id="desc4">Created with Sketch.</desc>
  <g
     id="Rounded"
     stroke="none"
     stroke-width="1"
     fill="none"
     fill-rule="evenodd"
     transform="matrix(0.25,0,0,0.25,110,0)">
    <g
       id="Large"
       transform="translate(-32,-968)">
      <g
         id="large/american-express"
         transform="translate(32,968)">
        <rect
           id="Background"
           fill="#13a8e0"
           x="0"
           y="0"
           width="200"
           height="120"
           rx="8" />
        <g
           id="Logo"
           transform="translate(0,24)"
           fill="#ffffff"
           fill-rule="nonzero">
          <g
             id="amex">
            <path
               d="M 18.412014,19.030692 14.578799,9.3721154 10.767491,19.030692 Z m 84.445226,-3.846038 c -0.76961,0.483038 -1.67985,0.499115 -2.77031,0.499115 h -6.803538 v -5.381384 h 6.896118 c 0.97597,0 1.99434,0.04531 2.65583,0.437 0.7265,0.352961 1.17597,1.104192 1.17597,2.141884 0,1.058885 -0.42756,1.910962 -1.15407,2.303385 z m 48.53569,3.846038 -3.87562,-9.6585766 -3.85441,9.6585766 z M 60.919435,29.485077 h -5.741343 l -0.0212,-18.975154 -8.120849,18.975154 H 42.118728 L 33.976678,10.493115 V 29.485077 H 22.585866 L 20.433922,24.081038 H 8.7731449 L 6.5992933,29.485077 H 0.51660777 L 10.545583,5.2571538 h 8.320848 L 28.391519,28.196 V 5.2571538 h 9.140637 L 44.861484,21.692885 51.594346,5.2571538 h 9.324382 V 29.485077 Z m 22.882685,0 H 65.093286 V 5.2571538 H 83.80212 V 10.302385 H 70.693993 v 4.367077 h 12.79364 v 4.966307 h -12.79364 v 4.838423 H 83.80212 Z m 26.3788,-17.702885 c 0,3.862847 -2.49329,5.858577 -3.94629,6.457808 1.22544,0.482308 2.27208,1.334385 2.77032,2.040308 0.79081,1.205038 0.9272,2.281461 0.9272,4.445269 v 4.7595 h -5.64876 l -0.0212,-3.055346 c 0,-1.457885 0.13498,-3.554462 -0.8841,-4.720039 -0.81837,-0.852077 -2.06572,-1.036961 -4.081977,-1.036961 h -6.012014 v 8.812346 h -5.6 V 5.2571538 h 12.881271 c 2.86219,0 4.97103,0.078192 6.78163,1.1604616 1.77173,1.0822692 2.83392,2.6621923 2.83392,5.3645766 z m 8.96254,17.702885 h -5.71449 V 5.2571538 h 5.71449 z m 66.29541,0 h -7.9364 L 166.88693,11.300615 v 18.184462 h -11.40566 l -2.1795,-5.404039 h -11.63393 l -2.11448,5.404039 H 133 c -2.72226,0 -6.1689,-0.622616 -8.12085,-2.679731 -1.9682,-2.057115 -2.99222,-4.843538 -2.99222,-9.249346 0,-3.593192 0.61201,-6.878 3.01908,-9.4736923 1.8106,-1.9336154 4.64593,-2.8251539 8.5053,-2.8251539 h 5.42191 v 5.1913852 h -5.30813 c -2.04382,0 -3.19788,0.31423 -4.30954,1.43523 -0.95477,1.020154 -1.6099,2.948654 -1.6099,5.488077 0,2.595692 0.49894,4.467192 1.53993,5.689769 0.86219,0.95877 2.42898,1.249616 3.90318,1.249616 h 2.5152 l 7.89328,-19.0533464 h 8.39152 l 9.48198,22.9161924 V 5.2578846 h 8.52721 l 9.84452,16.8734614 V 5.2578846 h 5.7364 z M 0.45088339,34.243846 H 10.020495 l 2.157597,-5.381385 h 4.830389 l 2.151943,5.381385 h 18.827562 v -4.114231 l 1.680565,4.13177 h 9.773852 l 1.680565,-4.193154 v 4.175615 h 46.790106 l -0.02191,-8.833538 h 0.9053 c 0.633923,0.02265 0.819082,0.08331 0.819082,1.165577 v 7.667961 h 24.200004 v -2.056385 c 1.95194,1.081539 4.98798,2.056385 8.98304,2.056385 h 10.18091 l 2.1788,-5.381385 h 4.83039 l 2.13074,5.381385 h 19.61909 v -5.111731 l 2.97102,5.111731 h 15.72155 V 0.45307692 H 174.87208 V 4.4438077 L 172.69329,0.45307692 H 156.72791 V 4.4438077 l -2.0007,-3.99073078 h -21.56537 c -3.6099,0 -6.78304,0.52103846 -9.34629,1.97307698 V 0.45307692 H 108.93357 V 2.4261539 c -1.6311,-1.49661544 -3.85371,-1.97307698 -6.32509,-1.97307698 H 48.238869 L 44.590813,9.1806539 40.844523,0.45307692 H 23.719435 V 4.4438077 L 21.838162,0.45307692 H 7.2332155 L 0.45088339,16.519038 Z"
               id="Shape" />
            <path
               d="m 199.70601,52.114808 h -10.20707 c -1.01908,0 -1.69611,0.03946 -2.26643,0.43773 -0.59081,0.392423 -0.81838,0.974847 -0.81838,1.743616 0,0.914192 0.49894,1.536077 1.22474,1.805 0.59081,0.212654 1.22544,0.274769 2.1583,0.274769 l 3.03534,0.08404 c 3.0629,0.07819 5.10742,0.622616 6.35406,1.950424 0.22686,0.184884 0.36325,0.392423 0.51944,0.599961 z m 0,15.976807 c -1.36043,2.057116 -4.01131,3.099923 -7.6,3.099923 h -10.81555 v -5.196499 h 10.77173 c 1.06855,0 1.81625,-0.145424 2.26643,-0.599962 0.39011,-0.374885 0.66219,-0.919308 0.66219,-1.580654 0,-0.705923 -0.27208,-1.266423 -0.6841,-1.602577 -0.40636,-0.369769 -0.99788,-0.537846 -1.97314,-0.537846 -5.25866,-0.184885 -11.81908,0.168077 -11.81908,-7.500615 0,-3.515 2.1583,-7.214885 8.03533,-7.214885 h 11.15619 v -4.821615 h -10.36537 c -3.12792,0 -5.4,0.774615 -7.00919,1.978923 v -1.978923 h -15.33074 c -2.45159,0 -5.32933,0.628461 -6.69046,1.978923 v -1.978923 h -27.37668 v 1.978923 c -2.1788,-1.625231 -5.85512,-1.978923 -7.55194,-1.978923 h -18.05796 v 1.978923 C 105.6,42.389731 101.76678,42.136885 99.430389,42.136885 H 79.220495 L 74.59576,47.312192 70.264311,42.136885 H 40.074912 v 33.814153 h 29.621201 l 4.765371,-5.257153 4.489046,5.257153 18.258657,0.01681 v -7.954423 h 1.795053 c 2.42262,0.03873 5.27986,-0.06212 7.80071,-1.188962 v 9.125847 h 15.06007 v -8.813077 h 0.7265 c 0.92721,0 1.01837,0.03946 1.01837,0.9975 v 7.814846 h 45.74983 c 2.90459,0 5.94063,-0.768769 7.6219,-2.163808 v 2.163808 h 14.51167 c 3.01978,0 5.9689,-0.437731 8.21272,-1.558731 z m -22.33993,-9.68123 c 1.09046,1.167038 1.67491,2.640269 1.67491,5.134384 0,5.213308 -3.14982,7.646769 -8.79788,7.646769 h -10.90813 v -5.196499 h 10.86431 c 1.06219,0 1.81555,-0.145424 2.28764,-0.599962 0.38515,-0.374885 0.66148,-0.919308 0.66148,-1.580654 0,-0.705923 -0.29894,-1.266423 -0.68339,-1.602577 -0.42827,-0.369769 -1.01908,-0.537846 -1.99435,-0.537846 -5.23745,-0.184885 -11.79647,0.168077 -11.79647,-7.500615 0,-3.515 2.13569,-7.214885 8.00707,-7.214885 h 11.22756 v 5.157769 h -10.27349 c -1.01838,0 -1.68057,0.03946 -2.24382,0.437731 -0.61343,0.392423 -0.84099,0.974846 -0.84099,1.743615 0,0.914193 0.52085,1.536077 1.22544,1.805 0.59081,0.212654 1.22544,0.27477 2.17951,0.27477 l 3.01484,0.08404 c 3.04028,0.07673 5.12721,0.620423 6.39576,1.948962 z m -50.53569,-1.496616 c -0.74912,0.459654 -1.67562,0.499116 -2.76537,0.499116 h -6.80354 v -5.44277 h 6.89612 c 0.99717,0 1.99505,0.02192 2.67279,0.437731 0.72579,0.392423 1.15972,1.142923 1.15972,2.179885 0,1.036961 -0.43393,1.87223 -1.15972,2.326038 z m 3.38233,3.015885 c 1.24664,0.475731 2.26572,1.328538 2.74346,2.034461 0.79082,1.183116 0.9053,2.287308 0.92792,4.423346 v 4.804077 h -5.62262 v -3.031961 c 0,-1.457885 0.13569,-3.616577 -0.9053,-4.743423 -0.81837,-0.868154 -2.06572,-1.075692 -4.10883,-1.075692 h -5.98516 v 8.851076 h -5.62756 V 46.957769 h 12.93003 c 2.83534,0 4.90036,0.129346 6.73852,1.143654 1.76749,1.104192 2.87915,2.616885 2.87915,5.381385 -7.1e-4,3.867961 -2.4954,5.841769 -3.96961,6.446846 z m 7.07491,-12.971885 h 18.69187 v 5.011616 h -13.11448 v 4.405807 h 12.79434 v 4.944385 h -12.79434 v 4.821615 l 13.11448,0.02192 v 5.028423 H 137.28763 Z M 99.501767,58.141461 h -7.237456 v -6.171346 h 7.302473 c 2.021906,0 3.425446,0.852077 3.425446,2.971308 0,2.095846 -1.33852,3.200038 -3.490463,3.200038 z m -12.815548,10.846077 -8.598587,-9.87123 8.598587,-9.557731 z M 64.480565,66.141192 H 50.710954 V 61.319577 H 63.00636 V 56.375192 H 50.710954 v -4.405807 h 14.040989 l 6.125796,7.062154 z M 109.00495,54.941423 c 0,6.731846 -4.85725,8.121769 -9.752653,8.121769 h -6.987986 v 8.128346 H 81.378799 l -6.896113,-8.022384 -7.166785,8.022384 H 45.132156 V 46.957769 h 22.525088 l 6.890459,7.943462 7.123675,-7.943462 h 17.895406 c 4.444526,0 9.438166,1.272269 9.438166,7.983654 z"
               id="path8" />
          </g>
        </g>
      </g>
    </g>
  </g>
  <g
     id="Rounded-3"
     stroke="none"
     stroke-width="1"
     fill="none"
     fill-rule="evenodd"
     transform="matrix(0.25,0,0,0.25,55,0)">
    <g
       id="Large-6"
       transform="translate(-32,-404)">
      <g
         id="large/mastercard"
         transform="translate(32,404)">
        <rect
           id="Background-7"
           fill="#10427a"
           x="0"
           y="0"
           width="200"
           height="120"
           rx="8" />
        <g
           id="Logo-5"
           transform="translate(52,20)"
           fill-rule="nonzero">
          <g
             id="mastercard">
            <rect
               id="Rectangle-path"
               fill="#ff5f00"
               x="36.44455"
               y="6.7953401"
               width="27.011835"
               height="49.950153" />
            <path
               d="m 38.159578,31.770409 c 0,-10.148883 4.6306,-19.150501 11.748004,-24.9750776 C 44.676719,2.5592758 38.073826,-7.8286421e-6 30.87067,-7.8286421e-6 13.80605,-7.8286421e-6 6.7414742e-7,14.208429 6.7414742e-7,31.770409 6.7414742e-7,49.33239 13.80605,63.540827 30.87067,63.540827 c 7.203156,0 13.806049,-2.559284 19.036912,-6.79534 C 42.790178,51.009162 38.159578,41.919293 38.159578,31.770409 Z"
               id="Shape-3"
               fill="#eb001b" />
            <path
               d="m 99.900916,31.770409 c 0,17.561981 -13.806049,31.770418 -30.870669,31.770418 -7.203156,0 -13.80605,-2.559284 -19.036913,-6.79534 7.203156,-5.824576 11.748005,-14.826194 11.748005,-24.975078 0,-10.148883 -4.630601,-19.150501 -11.748005,-24.9750776 C 55.224197,2.5592758 61.827091,-7.8286421e-6 69.030247,-7.8286421e-6 86.094867,-7.8286421e-6 99.900916,14.29668 99.900916,31.770409 Z"
               id="path9"
               fill="#f79e1b" />
          </g>
          <path
             d="m 14.571429,83.823529 v -5.294118 c 0,-2.029411 -1.333334,-3.352941 -3.619048,-3.352941 -1.1428572,0 -2.3809525,0.352941 -3.2380953,1.5 -0.6666667,-0.970588 -1.6190476,-1.5 -3.047619,-1.5 -0.952381,0 -1.904762,0.264706 -2.6666667,1.235295 V 75.352941 H 0 v 8.470588 h 2 v -4.67647 c 0,-1.5 0.8571428,-2.205883 2.1904762,-2.205883 1.3333333,0 2,0.794118 2,2.205883 v 4.67647 h 2 v -4.67647 c 0,-1.5 0.9523809,-2.205883 2.1904758,-2.205883 1.333334,0 2,0.794118 2,2.205883 v 4.67647 z m 29.619047,-8.470588 h -3.238095 v -2.558824 h -2 v 2.558824 h -1.809524 v 1.67647 h 1.809524 v 3.882354 c 0,1.941176 0.857143,3.088235 3.142857,3.088235 0.857143,0 1.809524,-0.264706 2.476191,-0.617647 L 44,81.794117 c -0.571429,0.352941 -1.238095,0.441177 -1.714286,0.441177 -0.95238,0 -1.333333,-0.529412 -1.333333,-1.411765 v -3.794118 h 3.238095 z M 61.142857,75.17647 c -1.142857,0 -1.904762,0.529412 -2.380952,1.235295 v -1.058824 h -2 v 8.470588 h 2 v -4.764706 c 0,-1.411764 0.666666,-2.205882 1.904762,-2.205882 0.380952,0 0.857143,0.08823 1.238095,0.17647 l 0.571429,-1.764705 C 62.095238,75.17647 61.52381,75.17647 61.142857,75.17647 Z M 35.523809,76.058823 C 34.571429,75.441176 33.238095,75.17647 31.809524,75.17647 29.52381,75.17647 28,76.235294 28,77.911764 c 0,1.411766 1.142857,2.205883 3.142857,2.470589 l 0.952381,0.08824 c 1.047619,0.17647 1.619048,0.441177 1.619048,0.882353 0,0.617647 -0.761905,1.058824 -2.095239,1.058824 -1.333333,0 -2.380952,-0.441177 -3.047619,-0.882354 l -0.952381,1.411765 C 28.666667,83.647058 30.095238,84 31.523809,84 c 2.666667,0 4.190477,-1.147059 4.190477,-2.735294 0,-1.5 -1.238096,-2.294118 -3.142857,-2.558824 l -0.952382,-0.08823 c -0.857142,-0.08824 -1.523809,-0.264706 -1.523809,-0.794118 0,-0.617647 0.666667,-0.970588 1.714286,-0.970588 1.142857,0 2.285714,0.441176 2.857142,0.705882 l 0.857143,-1.5 z M 88.666667,75.17647 c -1.142857,0 -1.904762,0.529412 -2.380953,1.235295 v -1.058824 h -2 v 8.470588 h 2 v -4.764706 c 0,-1.411764 0.666667,-2.205882 1.904762,-2.205882 0.380952,0 0.857143,0.08823 1.238096,0.17647 L 90,75.264706 c -0.380952,-0.08824 -0.952381,-0.08824 -1.333333,-0.08824 v 0 z m -25.52381,4.411765 C 63.142857,82.147058 65.047619,84 68,84 c 1.333333,0 2.285714,-0.264706 3.238095,-0.970589 l -0.952381,-1.5 c -0.761904,0.529412 -1.523809,0.794118 -2.380952,0.794118 -1.619048,0 -2.761905,-1.058823 -2.761905,-2.735294 0,-1.588235 1.142857,-2.647059 2.761905,-2.735294 0.857143,0 1.619048,0.264706 2.380952,0.794118 l 0.952381,-1.5 C 70.285714,75.441176 69.333333,75.17647 68,75.17647 c -2.952381,0 -4.857143,1.852941 -4.857143,4.411765 z m 18.476191,0 v -4.235294 h -2 v 1.058824 C 78.952381,75.617647 78,75.17647 76.761905,75.17647 c -2.571429,0 -4.571429,1.852941 -4.571429,4.411765 0,2.558823 2,4.411765 4.571429,4.411765 1.333333,0 2.285714,-0.441177 2.857143,-1.235294 v 1.058823 h 2 z m -7.333334,0 c 0,-1.5 1.047619,-2.735294 2.761905,-2.735294 1.619048,0 2.761905,1.147059 2.761905,2.735294 0,1.5 -1.142857,2.735294 -2.761905,2.735294 -1.714286,-0.08823 -2.761905,-1.235294 -2.761905,-2.735294 z M 50.380952,75.17647 c -2.666666,0 -4.571428,1.764706 -4.571428,4.411765 0,2.647059 1.904762,4.411765 4.666667,4.411765 1.333333,0 2.666666,-0.352942 3.714285,-1.147059 l -0.952381,-1.32353 c -0.761904,0.529412 -1.714286,0.882354 -2.666666,0.882354 -1.238096,0 -2.476191,-0.529412 -2.761905,-2.029412 h 6.761904 V 79.67647 c 0.09524,-2.735294 -1.619047,-4.5 -4.190476,-4.5 z m 0,1.588236 c 1.238096,0 2.095239,0.705882 2.285714,2.029411 h -4.761904 c 0.190476,-1.147058 1.047619,-2.029411 2.47619,-2.029411 z M 100,79.588235 V 72 h -2 v 4.411765 c -0.666667,-0.794118 -1.619048,-1.235295 -2.857143,-1.235295 -2.571428,0 -4.571428,1.852941 -4.571428,4.411765 0,2.558823 2,4.411765 4.571428,4.411765 C 96.476191,84 97.428572,83.558823 98,82.764706 v 1.058823 h 2 z m -7.333333,0 c 0,-1.5 1.047619,-2.735294 2.761905,-2.735294 1.619047,0 2.761904,1.147059 2.761904,2.735294 0,1.5 -1.142857,2.735294 -2.761904,2.735294 -1.714286,-0.08823 -2.761905,-1.235294 -2.761905,-2.735294 z m -66.857143,0 v -4.235294 h -2 v 1.058824 c -0.666667,-0.794118 -1.619048,-1.235295 -2.857143,-1.235295 -2.571429,0 -4.571429,1.852941 -4.571429,4.411765 0,2.558823 2,4.411765 4.571429,4.411765 1.333333,0 2.285714,-0.441177 2.857143,-1.235294 v 1.058823 h 2 z m -7.428572,0 c 0,-1.5 1.047619,-2.735294 2.761905,-2.735294 1.619048,0 2.761905,1.147059 2.761905,2.735294 0,1.5 -1.142857,2.735294 -2.761905,2.735294 -1.714286,-0.08823 -2.761905,-1.235294 -2.761905,-2.735294 z"
             id="path12"
             fill="#ffffff" />
        </g>
      </g>
    </g>
  </g>
  <g
     id="Rounded-5"
     stroke="none"
     stroke-width="1"
     fill="none"
     fill-rule="evenodd"
     transform="scale(0.25)">
    <g
       id="Large-62"
       transform="translate(-32,-28)">
      <g
         id="large/visa"
         transform="translate(32,28)">
        <rect
           id="Background-9"
           fill="#25459a"
           x="0"
           y="0"
           width="200"
           height="120"
           rx="8" />
        <g
           id="Logo-1"
           transform="translate(32,40)"
           fill="#ffffff"
           fill-rule="nonzero">
          <path
             d="m 68.267252,27.2122 c -0.07531,-5.57188 5.291573,-8.681421 9.334574,-10.530035 4.153985,-1.896969 5.549216,-3.11326 5.533361,-4.809373 C 83.103477,9.2765482 79.821512,8.130928 76.749625,8.0862935 71.390668,8.008183 68.275178,9.4439278 65.79785,10.530035 L 63.867516,2.0531895 C 66.352772,0.97824065 70.954658,0.04091501 75.726984,0 86.928473,0 94.257402,5.1887669 94.297039,13.234145 94.34064,23.4443 79.246772,24.009671 79.349829,28.573554 c 0.03567,1.383671 1.442796,2.860331 4.526575,3.236005 1.526034,0.189697 5.739475,0.334759 10.515765,-1.729589 l 1.874842,8.2016 C 93.698516,39.159382 90.396733,40 86.286349,40 75.742839,40 68.326707,34.740562 68.267252,27.2122 m 46.014898,12.081086 c -2.04529,0 -3.76951,-1.119583 -4.53847,-2.838014 L 93.742117,0.60256648 h 11.193563 l 2.22761,5.77645532 h 13.67882 l 1.29218,-5.77645532 H 132 L 123.39079,39.293286 h -9.10864 m 1.56567,-10.451925 3.23043,-14.528547 h -8.84703 l 5.6166,14.528547 M 54.695453,39.293286 45.8722,0.60256648 H 56.538586 L 65.357876,39.293286 H 54.695453 m -15.779592,0 -11.102396,-26.334387 -4.490902,22.391668 c -0.527175,2.499535 -2.608131,3.942719 -4.918984,3.942719 H 0.25367846 L 0,38.169983 c 3.7259024,-0.758787 7.9591616,-1.982518 10.523692,-3.291798 1.569636,-0.799703 2.017537,-1.498977 2.532821,-3.399666 L 21.562669,0.60256648 H 32.835505 L 50.11735,39.293286 H 38.915861"
             id="Shape-2"
             transform="matrix(1,0,0,-1,0,40)" />
        </g>
      </g>
    </g>
  </g>
  <metadata
     id="metadata79">
    <rdf:RDF>
      <cc:Work
         rdf:about="">
        <dc:title>large/american-express</dc:title>
      </cc:Work>
    </rdf:RDF>
  </metadata>
</svg>
